<svg id="Layer_1" data-name="Layer 1" xmlns="http://www.w3.org/2000/svg" width="80" height="80.646" viewBox="0 0 80 80.646">
  <path id="Path_1" data-name="Path 1" d="M40,0A40.329,40.329,0,0,1,80,35.2H60.618a21.245,21.245,0,0,0-41.236,0H0A40.329,40.329,0,0,1,40,0ZM78.678,51.747a40.333,40.333,0,0,1-77.356,0H22.091a21.248,21.248,0,0,0,35.819,0H78.678Z" fill="#fff" fill-rule="evenodd"/>
  <path id="Path_2" data-name="Path 2" d="M36.549,134.237l.995.926a1.177,1.177,0,0,0,.749.4,1.064,1.064,0,0,0,.693-.426l.237-.254a1.1,1.1,0,0,0,.379-.732,1.18,1.18,0,0,0-.456-.719l-.995-.926-1.6,1.727Zm-4.969,1.778,6.166-6.636,2.678,2.485a5.318,5.318,0,0,1,1.727,2.355,2.205,2.205,0,0,1-.745,1.946l-.5.534a2.154,2.154,0,0,1-1.3.754,1.981,1.981,0,0,1-1.391-.431,2.254,2.254,0,0,1,.564,1.356,1.847,1.847,0,0,1-.577,1.24l-1.27,1.369L35.115,139.3l1.111-1.193a1.119,1.119,0,0,0,.379-.732,1.18,1.18,0,0,0-.456-.719l-.986-.917-1.8,1.933-1.778-1.654h0Zm14.073,4.216-.5,1.4A2.518,2.518,0,0,0,44.9,143.1c.095.245.409.465.93.65l.422.151a1.474,1.474,0,0,0,1.141.086,2.511,2.511,0,0,0,.745-1.279l.5-1.4a2.544,2.544,0,0,0,.241-1.468c-.1-.254-.409-.474-.93-.663l-.422-.151a1.446,1.446,0,0,0-1.133-.082,2.558,2.558,0,0,0-.745,1.292h0ZM43.388,139.2l-.637,1.77a4.185,4.185,0,0,0-.245,2.976,3.594,3.594,0,0,0,2.256,1.679l1.12.4a3.622,3.622,0,0,0,2.821.142,4.171,4.171,0,0,0,1.7-2.446l.637-1.77a4.173,4.173,0,0,0,.245-2.971A3.611,3.611,0,0,0,49.02,137.3l-1.12-.4a3.6,3.6,0,0,0-2.812-.142,4.206,4.206,0,0,0-1.7,2.45h0Zm11.575,9-.138-9.056,4.25-.065a3.778,3.778,0,0,1,2.575.663,3.009,3.009,0,0,1,.81,2.3l.009.594a3,3,0,0,1-.741,2.334,3.756,3.756,0,0,1-2.549.745l-1.822.026.039,2.416-2.429.039h0Zm2.36-4.474,1.692-.026a1.072,1.072,0,0,0,.788-.224,1.307,1.307,0,0,0,.181-.861l-.009-.525a1.012,1.012,0,0,0-.258-.766,1.222,1.222,0,0,0-.84-.215l-1.593.026.039,2.592Zm10.744,2.963-3.148-8.492,6.382-2.364.7,1.895-4.1,1.52.547,1.473,3.983-1.477.607,1.636-3.983,1.477.594,1.6,4.194-1.555.7,1.895-6.472,2.4h0Zm9.1-7.755.426.456a2.069,2.069,0,0,0,1.714.788,3.855,3.855,0,0,0,2.063-1.167l1.451-1.348a2.586,2.586,0,0,0,.917-1.778,2.4,2.4,0,0,0-.711-1.8l-.59-.637a2.019,2.019,0,0,0-1.46-.732,2.97,2.97,0,0,0-1.731.685l-1.451,1.072h0c-.53.392-.9.465-1.133.22l-.258-.276a.517.517,0,0,1-.164-.491,1.582,1.582,0,0,1,.491-.642l.409-.383a1.124,1.124,0,0,1,.616-.353.712.712,0,0,1,.525.284l.065.073,1.705-1.585-.422-.456a1.86,1.86,0,0,0-1.606-.672,3.34,3.34,0,0,0-1.895,1.012l-1.068.99a6.506,6.506,0,0,0-.947,1.033,1.91,1.91,0,0,0-.319.827,2.031,2.031,0,0,0,.125.99,3.058,3.058,0,0,0,.62.965l.383.409a2.076,2.076,0,0,0,3.169.3l1.589-1.184a1.766,1.766,0,0,1,.728-.383.546.546,0,0,1,.444.22l.267.289a.582.582,0,0,1,.194.538,1.459,1.459,0,0,1-.465.637l-.448.413a1.624,1.624,0,0,1-.81.487.794.794,0,0,1-.659-.323l-.06-.069-1.705,1.585Z" transform="translate(-17.981 -73.667)" fill="#e3000f" fill-rule="evenodd"/>
  <path id="Path_3" data-name="Path 3" d="M.91,96.375l1.232-.142a1.847,1.847,0,0,0,.448,1.051,1.236,1.236,0,0,0,.913.336,1.259,1.259,0,0,0,.913-.3.936.936,0,0,0,.31-.7.736.736,0,0,0-.129-.439.993.993,0,0,0-.452-.31c-.146-.06-.482-.164-1-.319a3.193,3.193,0,0,1-1.417-.719,2.032,2.032,0,0,1-.573-1.46,2.128,2.128,0,0,1,.267-1.038A1.791,1.791,0,0,1,2.2,91.6a2.735,2.735,0,0,1,1.227-.254,2.383,2.383,0,0,1,1.766.6,2.3,2.3,0,0,1,.624,1.611l-1.266.052A1.311,1.311,0,0,0,4.2,92.81a1.127,1.127,0,0,0-.792-.245,1.278,1.278,0,0,0-.853.263.558.558,0,0,0-.2.452.59.59,0,0,0,.189.439A3.024,3.024,0,0,0,3.7,94.2a5.469,5.469,0,0,1,1.356.521,1.891,1.891,0,0,1,.689.736A2.6,2.6,0,0,1,5.7,97.783a1.84,1.84,0,0,1-.844.805,3.1,3.1,0,0,1-1.361.263,2.462,2.462,0,0,1-1.817-.633,2.942,2.942,0,0,1-.758-1.843h0Zm5.564-2.9H7.748l1.085,3.721,1.059-3.721h1.24l-1.6,5.047-.289.913a4.1,4.1,0,0,1-.3.7,1.5,1.5,0,0,1-.327.392,1.381,1.381,0,0,1-.456.233,2.065,2.065,0,0,1-.616.086,2.779,2.779,0,0,1-.68-.086l-.1-1.081a2.309,2.309,0,0,0,.508.065.707.707,0,0,0,.62-.284,2.182,2.182,0,0,0,.31-.728L6.478,93.473h0Zm5.34,0h1.1v.715a1.708,1.708,0,0,1,1.408-.827,1.354,1.354,0,0,1,.754.207,1.523,1.523,0,0,1,.525.624,2.149,2.149,0,0,1,.646-.624,1.4,1.4,0,0,1,.736-.207,1.484,1.484,0,0,1,.844.233,1.424,1.424,0,0,1,.517.689,3.432,3.432,0,0,1,.125,1.085v3.35h-1.2V95.725a2.469,2.469,0,0,0-.125-1.008.548.548,0,0,0-.512-.3.753.753,0,0,0-.474.177,1.007,1.007,0,0,0-.319.521,4.326,4.326,0,0,0-.1,1.081v2.515h-1.2V95.846a4.54,4.54,0,0,0-.065-.986.647.647,0,0,0-.2-.332.557.557,0,0,0-.362-.108.771.771,0,0,0-.5.172.96.96,0,0,0-.319.5,4.234,4.234,0,0,0-.095,1.081v2.545h-1.2V93.473h0Zm7.79,5.245V91.483h1.2v2.61a1.619,1.619,0,0,1,1.313-.732,1.66,1.66,0,0,1,1.365.693,3.185,3.185,0,0,1,.543,1.994,3.45,3.45,0,0,1-.551,2.071,1.64,1.64,0,0,1-1.339.728,1.456,1.456,0,0,1-.766-.233,2.028,2.028,0,0,1-.65-.672v.771H19.607ZM20.779,96A2.485,2.485,0,0,0,21,97.2a.929.929,0,0,0,.827.555.817.817,0,0,0,.676-.4,2.181,2.181,0,0,0,.28-1.24,2.29,2.29,0,0,0-.284-1.3.849.849,0,0,0-1.434-.013,2.006,2.006,0,0,0-.289,1.184h0Zm3.923.039a3.237,3.237,0,0,1,.293-1.339,2.255,2.255,0,0,1,.831-.99,2.183,2.183,0,0,1,1.2-.34,2.109,2.109,0,0,1,1.684.775,2.908,2.908,0,0,1,.655,1.955,2.957,2.957,0,0,1-.663,1.977,2.1,2.1,0,0,1-1.666.784,2.308,2.308,0,0,1-1.184-.327,2.066,2.066,0,0,1-.857-.956,3.567,3.567,0,0,1-.293-1.533h0Zm1.232.073a1.943,1.943,0,0,0,.319,1.2.957.957,0,0,0,.788.418.944.944,0,0,0,.784-.418,1.963,1.963,0,0,0,.319-1.206,1.893,1.893,0,0,0-.319-1.184.949.949,0,0,0-.784-.418.962.962,0,0,0-.788.418,1.943,1.943,0,0,0-.319,1.2h0Zm4.379,2.614V91.488h1.2v7.234Zm4.569-2.687a3.237,3.237,0,0,1,.293-1.339,2.255,2.255,0,0,1,.831-.99,2.183,2.183,0,0,1,1.2-.34,2.109,2.109,0,0,1,1.684.775,2.908,2.908,0,0,1,.655,1.955,2.957,2.957,0,0,1-.663,1.977,2.1,2.1,0,0,1-1.666.784,2.334,2.334,0,0,1-1.189-.327,2.065,2.065,0,0,1-.857-.956,3.567,3.567,0,0,1-.293-1.533h0Zm1.232.073a1.943,1.943,0,0,0,.319,1.2.957.957,0,0,0,.788.418A.944.944,0,0,0,38,97.305a1.963,1.963,0,0,0,.319-1.206A1.893,1.893,0,0,0,38,94.916a.949.949,0,0,0-.784-.418.962.962,0,0,0-.788.418,1.943,1.943,0,0,0-.319,1.2h0Zm3.854-2.631h.663v-.4a3.025,3.025,0,0,1,.121-.99,1.074,1.074,0,0,1,.448-.534,1.534,1.534,0,0,1,.831-.207,3.047,3.047,0,0,1,1.008.177l-.151.965a2.194,2.194,0,0,0-.564-.077.449.449,0,0,0-.379.142.941.941,0,0,0-.116.547v.375h.9v1.089h-.9v4.155h-1.2V94.567h-.663V93.477h0Zm5.529,2.9,1.232-.142a1.847,1.847,0,0,0,.448,1.051,1.236,1.236,0,0,0,.913.336,1.259,1.259,0,0,0,.913-.3.936.936,0,0,0,.31-.7.736.736,0,0,0-.129-.439.993.993,0,0,0-.452-.31c-.146-.06-.482-.164-1-.319a3.192,3.192,0,0,1-1.417-.719,2.031,2.031,0,0,1-.573-1.46A2.128,2.128,0,0,1,46,92.345a1.791,1.791,0,0,1,.779-.736,2.735,2.735,0,0,1,1.227-.254,2.383,2.383,0,0,1,1.766.6,2.3,2.3,0,0,1,.624,1.611l-1.266.052a1.311,1.311,0,0,0-.344-.805A1.127,1.127,0,0,0,48,92.569a1.278,1.278,0,0,0-.853.263.558.558,0,0,0-.2.452.59.59,0,0,0,.189.439,3.024,3.024,0,0,0,1.154.487,5.469,5.469,0,0,1,1.356.521,1.891,1.891,0,0,1,.689.736,2.459,2.459,0,0,1,.25,1.154,2.4,2.4,0,0,1-.3,1.167,1.84,1.84,0,0,1-.844.805,3.1,3.1,0,0,1-1.361.263,2.462,2.462,0,0,1-1.817-.633,2.942,2.942,0,0,1-.758-1.843h0Zm8.208-2.9v1.1h-.818V96.7a7.166,7.166,0,0,0,.022.754.33.33,0,0,0,.108.177.3.3,0,0,0,.2.069,1.342,1.342,0,0,0,.482-.133l.1,1.077a2.081,2.081,0,0,1-.943.207,1.339,1.339,0,0,1-.581-.125A.87.87,0,0,1,51.9,98.4a1.391,1.391,0,0,1-.168-.543,7.757,7.757,0,0,1-.039-.982v-2.3h-.551v-1.1h.551V92.435l1.2-.818v1.86H53.7Zm1.981,5.245h-1.2V93.477h1.107v.745a2.089,2.089,0,0,1,.517-.693.881.881,0,0,1,.521-.164,1.351,1.351,0,0,1,.788.263l-.37,1.21a.965.965,0,0,0-.564-.228.589.589,0,0,0-.426.159,1.177,1.177,0,0,0-.276.581,9.355,9.355,0,0,0-.1,1.757v1.615h0Zm4.87-1.658,1.2.233a2.285,2.285,0,0,1-.723,1.158,1.936,1.936,0,0,1-1.24.4,1.91,1.91,0,0,1-1.744-.9,3.371,3.371,0,0,1-.448-1.809,3.216,3.216,0,0,1,.586-2.041,1.816,1.816,0,0,1,1.486-.741,1.892,1.892,0,0,1,1.593.775,3.832,3.832,0,0,1,.555,2.368H58.824a1.545,1.545,0,0,0,.289.96.852.852,0,0,0,.685.344.661.661,0,0,0,.469-.177,1.118,1.118,0,0,0,.289-.573h0Zm.069-1.4a1.49,1.49,0,0,0-.267-.917.769.769,0,0,0-.62-.314.792.792,0,0,0-.646.332,1.424,1.424,0,0,0-.25.9Zm6.283,3.062h-1.2V96.048a4.74,4.74,0,0,0-.078-1.1.771.771,0,0,0-.25-.388.635.635,0,0,0-.418-.138.876.876,0,0,0-.564.2.982.982,0,0,0-.34.521,4.973,4.973,0,0,0-.095,1.206v2.373h-1.2V93.477h1.107v.771a1.755,1.755,0,0,1,1.5-.883,1.641,1.641,0,0,1,.728.164,1.252,1.252,0,0,1,.5.422,1.655,1.655,0,0,1,.237.581,4.99,4.99,0,0,1,.069.93v3.255h0Zm1.1.332,1.369.194a.625.625,0,0,0,.155.388.811.811,0,0,0,.538.151,1.232,1.232,0,0,0,.7-.164.664.664,0,0,0,.237-.349,2.54,2.54,0,0,0,.056-.637V97.87a1.565,1.565,0,0,1-1.356.857,1.628,1.628,0,0,1-1.447-.891,3.38,3.38,0,0,1-.418-1.757,3.206,3.206,0,0,1,.547-2.011,1.67,1.67,0,0,1,1.365-.7,1.628,1.628,0,0,1,1.387.853v-.741h1.115v4.7a5.264,5.264,0,0,1-.133,1.387,1.741,1.741,0,0,1-.37.719,1.615,1.615,0,0,1-.637.409,2.931,2.931,0,0,1-1.008.146,2.355,2.355,0,0,1-1.632-.456,1.53,1.53,0,0,1-.482-1.163c0-.047,0-.1,0-.168h0Zm1.072-3.062a2.112,2.112,0,0,0,.28,1.219.827.827,0,0,0,.689.388.908.908,0,0,0,.741-.4,1.908,1.908,0,0,0,.3-1.176,2.077,2.077,0,0,0-.289-1.206.876.876,0,0,0-.732-.4.824.824,0,0,0-.706.388,2.028,2.028,0,0,0-.28,1.18h0Zm6.438-2.515v1.1H74.7V96.7a7.165,7.165,0,0,0,.022.754.33.33,0,0,0,.108.177.3.3,0,0,0,.2.069,1.342,1.342,0,0,0,.482-.133l.1,1.077a2.081,2.081,0,0,1-.943.207,1.339,1.339,0,0,1-.581-.125.87.87,0,0,1-.379-.327,1.391,1.391,0,0,1-.168-.543,7.757,7.757,0,0,1-.039-.982v-2.3h-.551v-1.1H73.5V92.435l1.2-.818v1.86h.818Zm2.015-1.989v2.683a1.691,1.691,0,0,1,1.391-.8,1.59,1.59,0,0,1,.749.177,1.3,1.3,0,0,1,.5.456,1.839,1.839,0,0,1,.233.611,6.07,6.07,0,0,1,.065,1.042v3.07h-1.2V95.962a4.624,4.624,0,0,0-.069-1.046.7.7,0,0,0-.245-.353.72.72,0,0,0-.439-.133.908.908,0,0,0-.538.168.947.947,0,0,0-.344.5,3.4,3.4,0,0,0-.112,1v2.622h-1.2V91.488h1.2Z" transform="translate(-0.518 -52.013)" fill="#fff" fill-rule="evenodd"/>
  <path id="Path_4" data-name="Path 4" d="M81.433,29.91l.633,1.722L71.323,35.568l-.633-1.727a1.558,1.558,0,0,1,.926-2l7.82-2.864a1.556,1.556,0,0,1,2,.926h0ZM74.75,19.368a1.543,1.543,0,0,0-2.144-.375l-.956.672,1.908,2.709L66.414,27.4l1.964,2.79,7.144-5.025,1.916,2.726.956-.672a1.543,1.543,0,0,0,.375-2.144l-4.013-5.706h0Zm-13.526-.056a1.827,1.827,0,0,0,.861,1.236,1.725,1.725,0,0,0,1.443.22,2.253,2.253,0,0,0,1.27-1.042l2.709-4.319a1.612,1.612,0,0,1,2.222-.508l1.511.947L67.675,21.53a5.2,5.2,0,0,1-1.938,1.877,4.356,4.356,0,0,1-2.476.491,6.028,6.028,0,0,1-2.678-.956,6.128,6.128,0,0,1-2.054-2.011,4.474,4.474,0,0,1-.663-2.459A5.062,5.062,0,0,1,58.7,15.9l3.566-5.684,1.516.952a1.607,1.607,0,0,1,.508,2.218l-2.709,4.319a2.161,2.161,0,0,0-.353,1.611h0Zm-9.887-.728-.9-2.291-1.791-.146-.25,3.075-1.86-.151a1.533,1.533,0,0,1-1.4-1.649L45.8,9.068a1.533,1.533,0,0,1,1.649-1.4l3.794.306a5.419,5.419,0,0,1,3.471,1.344,3.708,3.708,0,0,1,1.021,3.1,4.55,4.55,0,0,1-.672,2.132,3.67,3.67,0,0,1-1.542,1.339l2.011,3.914-2.868-.233a1.573,1.573,0,0,1-1.335-.986h0Zm-2.485-5.038,1.938.155a1.62,1.62,0,0,0,1.21-.31,1.57,1.57,0,0,0,.508-1.137,1.531,1.531,0,0,0-.323-1.18,1.643,1.643,0,0,0-1.145-.5L49.1,10.424l-.254,3.122h0Zm-13.366-2.48a1.611,1.611,0,0,0-1.774-.263l-1.219.577a1.607,1.607,0,0,0-.922,1.52l.452,11.364,3.156-1.5-.37-4.595-.336-3.979,2.842,2.79L40.581,20.2l3.273-1.555-8.367-7.592h0ZM15.032,29.255l.547-.947a1.588,1.588,0,0,1,1.49-.792l6.042.439L19.7,22.964a1.584,1.584,0,0,1-.065-1.688l.547-.947a1.549,1.549,0,0,1,2.114-.568L30.866,24.7l-1.49,2.588L23.494,23.9l3.6,5.09L26,30.9l-6.214-.564,5.882,3.389-1.49,2.588-8.574-4.939a1.549,1.549,0,0,1-.568-2.114Z" transform="translate(-8.444 -4.361)" fill="#e3000f" fill-rule="evenodd"/>
</svg>
